<svg width="218" height="36" viewBox="0 0 218 36" fill="none" xmlns="http://www.w3.org/2000/svg">
<path d="M1 17.8162C1 8.52885 8.52885 1 17.8162 1H200.184C209.471 1 217 8.52885 217 17.8162C217 27.1035 209.471 34.6323 200.184 34.6323H17.8162C8.52886 34.6323 1 27.1035 1 17.8162Z" fill="#AEAEAE" stroke="black" stroke-width="2"/>
<path d="M52.7383 18.8799H50.9121L50.9023 17.874H52.4355C52.7057 17.874 52.9271 17.8398 53.0996 17.7715C53.2721 17.6999 53.4007 17.5973 53.4854 17.4639C53.5732 17.3271 53.6172 17.1611 53.6172 16.9658C53.6172 16.7445 53.5749 16.5654 53.4902 16.4287C53.4089 16.292 53.2803 16.1927 53.1045 16.1309C52.932 16.069 52.709 16.0381 52.4355 16.0381H51.4199V22H49.9551V14.8906H52.4355C52.849 14.8906 53.2184 14.9297 53.5439 15.0078C53.8727 15.0859 54.151 15.2048 54.3789 15.3643C54.6068 15.5238 54.7809 15.7256 54.9014 15.9697C55.0218 16.2106 55.082 16.4971 55.082 16.8291C55.082 17.1221 55.0153 17.3923 54.8818 17.6396C54.7516 17.887 54.5449 18.0889 54.2617 18.2451C53.9818 18.4014 53.6156 18.4876 53.1631 18.5039L52.7383 18.8799ZM52.6748 22H50.5117L51.083 20.8574H52.6748C52.932 20.8574 53.1419 20.8167 53.3047 20.7354C53.4674 20.6507 53.5879 20.5368 53.666 20.3936C53.7441 20.2503 53.7832 20.0859 53.7832 19.9004C53.7832 19.6921 53.7474 19.5114 53.6758 19.3584C53.6074 19.2054 53.4967 19.0882 53.3438 19.0068C53.1908 18.9222 52.9889 18.8799 52.7383 18.8799H51.3271L51.3369 17.874H53.0947L53.4316 18.2695C53.8646 18.263 54.2129 18.3395 54.4766 18.499C54.7435 18.6553 54.9372 18.8587 55.0576 19.1094C55.1813 19.36 55.2432 19.6286 55.2432 19.915C55.2432 20.3708 55.1439 20.7549 54.9453 21.0674C54.7467 21.3766 54.4554 21.6094 54.0713 21.7656C53.6904 21.9219 53.2249 22 52.6748 22ZM61.1123 20.8574V22H57.3281V20.8574H61.1123ZM57.8066 14.8906V22H56.3418V14.8906H57.8066ZM60.6191 17.7861V18.8994H57.3281V17.7861H60.6191ZM61.1074 14.8906V16.0381H57.3281V14.8906H61.1074ZM61.9668 14.8906H64.6182C65.1618 14.8906 65.6289 14.972 66.0195 15.1348C66.4134 15.2975 66.7161 15.5384 66.9277 15.8574C67.1393 16.1764 67.2451 16.5687 67.2451 17.0342C67.2451 17.415 67.18 17.7422 67.0498 18.0156C66.9229 18.2858 66.7422 18.512 66.5078 18.6943C66.2767 18.8734 66.0049 19.0166 65.6924 19.124L65.2285 19.3682H62.9238L62.9141 18.2256H64.6279C64.8851 18.2256 65.0983 18.18 65.2676 18.0889C65.4368 17.9977 65.5638 17.8708 65.6484 17.708C65.7363 17.5452 65.7803 17.3564 65.7803 17.1416C65.7803 16.9137 65.738 16.7168 65.6533 16.5508C65.5687 16.3848 65.4401 16.2578 65.2676 16.1699C65.0951 16.082 64.8786 16.0381 64.6182 16.0381H63.4316V22H61.9668V14.8906ZM65.9414 22L64.3203 18.8311L65.8682 18.8213L67.5088 21.9316V22H65.9414ZM74.0078 18.2842V21.1016C73.8971 21.235 73.7262 21.3799 73.4951 21.5361C73.264 21.6891 72.9661 21.821 72.6016 21.9316C72.237 22.0423 71.7959 22.0977 71.2783 22.0977C70.8193 22.0977 70.401 22.0228 70.0234 21.873C69.6458 21.7201 69.3203 21.4971 69.0469 21.2041C68.7767 20.9111 68.5684 20.5531 68.4219 20.1299C68.2754 19.7035 68.2021 19.2168 68.2021 18.6699V18.2256C68.2021 17.6787 68.2721 17.1921 68.4121 16.7656C68.5553 16.3392 68.7588 15.9795 69.0225 15.6865C69.2861 15.3936 69.6003 15.1706 69.9648 15.0176C70.3294 14.8646 70.7347 14.7881 71.1807 14.7881C71.7992 14.7881 72.307 14.889 72.7041 15.0908C73.1012 15.2894 73.404 15.5661 73.6123 15.9209C73.8239 16.2725 73.9541 16.6761 74.0029 17.1318H72.582C72.5462 16.891 72.4779 16.681 72.377 16.502C72.276 16.3229 72.1312 16.1829 71.9424 16.082C71.7568 15.9811 71.516 15.9307 71.2197 15.9307C70.9756 15.9307 70.7575 15.9811 70.5654 16.082C70.3766 16.1797 70.2171 16.3245 70.0869 16.5166C69.9567 16.7087 69.8574 16.9463 69.7891 17.2295C69.7207 17.5127 69.6865 17.8415 69.6865 18.2158V18.6699C69.6865 19.041 69.7223 19.3698 69.7939 19.6562C69.8656 19.9395 69.9714 20.1787 70.1113 20.374C70.2546 20.5661 70.4303 20.7109 70.6387 20.8086C70.847 20.9062 71.0895 20.9551 71.3662 20.9551C71.5973 20.9551 71.7894 20.9355 71.9424 20.8965C72.0986 20.8574 72.224 20.8102 72.3184 20.7549C72.416 20.6963 72.4909 20.641 72.543 20.5889V19.3291H71.2051V18.2842H74.0078ZM78.0801 16.1064L76.1465 22H74.5889L77.2305 14.8906H78.2217L78.0801 16.1064ZM79.6865 22L77.748 16.1064L77.5918 14.8906H78.5928L81.249 22H79.6865ZM79.5986 19.3535V20.501H75.8438V19.3535H79.5986ZM84.6914 18.8799H82.8652L82.8555 17.874H84.3887C84.6589 17.874 84.8802 17.8398 85.0527 17.7715C85.2253 17.6999 85.3538 17.5973 85.4385 17.4639C85.5264 17.3271 85.5703 17.1611 85.5703 16.9658C85.5703 16.7445 85.528 16.5654 85.4434 16.4287C85.362 16.292 85.2334 16.1927 85.0576 16.1309C84.8851 16.069 84.6621 16.0381 84.3887 16.0381H83.373V22H81.9082V14.8906H84.3887C84.8021 14.8906 85.1715 14.9297 85.4971 15.0078C85.8258 15.0859 86.1042 15.2048 86.332 15.3643C86.5599 15.5238 86.734 15.7256 86.8545 15.9697C86.9749 16.2106 87.0352 16.4971 87.0352 16.8291C87.0352 17.1221 86.9684 17.3923 86.835 17.6396C86.7048 17.887 86.498 18.0889 86.2148 18.2451C85.9349 18.4014 85.5687 18.4876 85.1162 18.5039L84.6914 18.8799ZM84.6279 22H82.4648L83.0361 20.8574H84.6279C84.8851 20.8574 85.0951 20.8167 85.2578 20.7354C85.4206 20.6507 85.541 20.5368 85.6191 20.3936C85.6973 20.2503 85.7363 20.0859 85.7363 19.9004C85.7363 19.6921 85.7005 19.5114 85.6289 19.3584C85.5605 19.2054 85.4499 19.0882 85.2969 19.0068C85.1439 18.9222 84.9421 18.8799 84.6914 18.8799H83.2803L83.29 17.874H85.0479L85.3848 18.2695C85.8177 18.263 86.166 18.3395 86.4297 18.499C86.6966 18.6553 86.8903 18.8587 87.0107 19.1094C87.1344 19.36 87.1963 19.6286 87.1963 19.915C87.1963 20.3708 87.097 20.7549 86.8984 21.0674C86.6999 21.3766 86.4085 21.6094 86.0244 21.7656C85.6436 21.9219 85.1781 22 84.6279 22ZM92.2207 14.8906H93.6807V19.5879C93.6807 20.1348 93.5635 20.5954 93.3291 20.9697C93.098 21.3441 92.7773 21.6257 92.3672 21.8145C91.9603 22.0033 91.4915 22.0977 90.9609 22.0977C90.4303 22.0977 89.9583 22.0033 89.5449 21.8145C89.1348 21.6257 88.8125 21.3441 88.5781 20.9697C88.347 20.5954 88.2314 20.1348 88.2314 19.5879V14.8906H89.6963V19.5879C89.6963 19.9069 89.7467 20.1673 89.8477 20.3691C89.9486 20.571 90.0934 20.7191 90.2822 20.8135C90.4743 20.9079 90.7005 20.9551 90.9609 20.9551C91.2279 20.9551 91.4541 20.9079 91.6396 20.8135C91.8285 20.7191 91.9717 20.571 92.0693 20.3691C92.1702 20.1673 92.2207 19.9069 92.2207 19.5879V14.8906ZM100.673 14.8906V22H99.208L96.3516 17.2344V22H94.8867V14.8906H96.3516L99.2129 19.6611V14.8906H100.673ZM107.582 18.2842V21.1016C107.471 21.235 107.3 21.3799 107.069 21.5361C106.838 21.6891 106.54 21.821 106.176 21.9316C105.811 22.0423 105.37 22.0977 104.853 22.0977C104.394 22.0977 103.975 22.0228 103.598 21.873C103.22 21.7201 102.895 21.4971 102.621 21.2041C102.351 20.9111 102.143 20.5531 101.996 20.1299C101.85 19.7035 101.776 19.2168 101.776 18.6699V18.2256C101.776 17.6787 101.846 17.1921 101.986 16.7656C102.13 16.3392 102.333 15.9795 102.597 15.6865C102.86 15.3936 103.174 15.1706 103.539 15.0176C103.904 14.8646 104.309 14.7881 104.755 14.7881C105.373 14.7881 105.881 14.889 106.278 15.0908C106.675 15.2894 106.978 15.5661 107.187 15.9209C107.398 16.2725 107.528 16.6761 107.577 17.1318H106.156C106.12 16.891 106.052 16.681 105.951 16.502C105.85 16.3229 105.705 16.1829 105.517 16.082C105.331 15.9811 105.09 15.9307 104.794 15.9307C104.55 15.9307 104.332 15.9811 104.14 16.082C103.951 16.1797 103.791 16.3245 103.661 16.5166C103.531 16.7087 103.432 16.9463 103.363 17.2295C103.295 17.5127 103.261 17.8415 103.261 18.2158V18.6699C103.261 19.041 103.297 19.3698 103.368 19.6562C103.44 19.9395 103.546 20.1787 103.686 20.374C103.829 20.5661 104.005 20.7109 104.213 20.8086C104.421 20.9062 104.664 20.9551 104.94 20.9551C105.172 20.9551 105.364 20.9355 105.517 20.8965C105.673 20.8574 105.798 20.8102 105.893 20.7549C105.99 20.6963 106.065 20.641 106.117 20.5889V19.3291H104.779V18.2842H107.582ZM114.955 20.1396C114.955 20.0127 114.936 19.8988 114.896 19.7979C114.861 19.6937 114.792 19.5993 114.691 19.5146C114.59 19.4268 114.449 19.3405 114.267 19.2559C114.084 19.1712 113.848 19.0833 113.559 18.9922C113.236 18.888 112.93 18.7708 112.641 18.6406C112.354 18.5104 112.1 18.359 111.879 18.1865C111.661 18.0107 111.488 17.8073 111.361 17.5762C111.238 17.3451 111.176 17.0765 111.176 16.7705C111.176 16.4743 111.241 16.2057 111.371 15.9648C111.501 15.7207 111.684 15.5124 111.918 15.3398C112.152 15.1641 112.429 15.029 112.748 14.9346C113.07 14.8402 113.424 14.793 113.808 14.793C114.332 14.793 114.789 14.8874 115.18 15.0762C115.57 15.265 115.873 15.5238 116.088 15.8525C116.306 16.1813 116.415 16.5573 116.415 16.9805H114.96C114.96 16.7721 114.916 16.5898 114.828 16.4336C114.743 16.2741 114.613 16.1488 114.438 16.0576C114.265 15.9665 114.047 15.9209 113.783 15.9209C113.529 15.9209 113.318 15.96 113.148 16.0381C112.979 16.113 112.852 16.2155 112.768 16.3457C112.683 16.4727 112.641 16.6159 112.641 16.7754C112.641 16.8958 112.67 17.0049 112.729 17.1025C112.79 17.2002 112.882 17.2913 113.002 17.376C113.122 17.4606 113.271 17.5404 113.446 17.6152C113.622 17.6901 113.826 17.7633 114.057 17.835C114.444 17.9521 114.784 18.084 115.077 18.2305C115.373 18.377 115.621 18.5413 115.819 18.7236C116.018 18.9059 116.168 19.1126 116.269 19.3438C116.369 19.5749 116.42 19.8369 116.42 20.1299C116.42 20.4391 116.36 20.7158 116.239 20.96C116.119 21.2041 115.945 21.4108 115.717 21.5801C115.489 21.7493 115.217 21.8779 114.901 21.9658C114.586 22.0537 114.232 22.0977 113.842 22.0977C113.49 22.0977 113.144 22.0521 112.802 21.9609C112.46 21.8665 112.149 21.7249 111.869 21.5361C111.592 21.3473 111.371 21.1064 111.205 20.8135C111.039 20.5205 110.956 20.1738 110.956 19.7734H112.426C112.426 19.9948 112.46 20.182 112.528 20.335C112.597 20.488 112.693 20.6117 112.816 20.7061C112.943 20.8005 113.093 20.8688 113.266 20.9111C113.441 20.9535 113.633 20.9746 113.842 20.9746C114.096 20.9746 114.304 20.9388 114.467 20.8672C114.633 20.7956 114.755 20.6963 114.833 20.5693C114.914 20.4424 114.955 20.2992 114.955 20.1396ZM122.187 20.8574V22H118.402V20.8574H122.187ZM118.881 14.8906V22H117.416V14.8906H118.881ZM121.693 17.7861V18.8994H118.402V17.7861H121.693ZM122.182 14.8906V16.0381H118.402V14.8906H122.182ZM124.506 14.8906V22H123.041V14.8906H124.506ZM128.764 14.8906L125.946 18.4014L124.32 20.1494L124.057 18.7627L125.155 17.2588L126.967 14.8906H128.764ZM127.099 22L125.004 18.7139L126.088 17.8057L128.832 22H127.099ZM132.289 16.1064L130.355 22H128.798L131.439 14.8906H132.431L132.289 16.1064ZM133.896 22L131.957 16.1064L131.801 14.8906H132.802L135.458 22H133.896ZM133.808 19.3535V20.501H130.053V19.3535H133.808ZM136.117 14.8906H138.769C139.312 14.8906 139.779 14.972 140.17 15.1348C140.564 15.2975 140.867 15.5384 141.078 15.8574C141.29 16.1764 141.396 16.5687 141.396 17.0342C141.396 17.415 141.33 17.7422 141.2 18.0156C141.073 18.2858 140.893 18.512 140.658 18.6943C140.427 18.8734 140.155 19.0166 139.843 19.124L139.379 19.3682H137.074L137.064 18.2256H138.778C139.035 18.2256 139.249 18.18 139.418 18.0889C139.587 17.9977 139.714 17.8708 139.799 17.708C139.887 17.5452 139.931 17.3564 139.931 17.1416C139.931 16.9137 139.888 16.7168 139.804 16.5508C139.719 16.3848 139.59 16.2578 139.418 16.1699C139.245 16.082 139.029 16.0381 138.769 16.0381H137.582V22H136.117V14.8906ZM140.092 22L138.471 18.8311L140.019 18.8213L141.659 21.9316V22H140.092ZM145.414 16.1064L143.48 22H141.923L144.564 14.8906H145.556L145.414 16.1064ZM147.021 22L145.082 16.1064L144.926 14.8906H145.927L148.583 22H147.021ZM146.933 19.3535V20.501H143.178V19.3535H146.933ZM155.028 14.8906V22H153.563L150.707 17.2344V22H149.242V14.8906H150.707L153.568 19.6611V14.8906H155.028ZM161.938 18.2842V21.1016C161.827 21.235 161.656 21.3799 161.425 21.5361C161.194 21.6891 160.896 21.821 160.531 21.9316C160.167 22.0423 159.726 22.0977 159.208 22.0977C158.749 22.0977 158.331 22.0228 157.953 21.873C157.576 21.7201 157.25 21.4971 156.977 21.2041C156.706 20.9111 156.498 20.5531 156.352 20.1299C156.205 19.7035 156.132 19.2168 156.132 18.6699V18.2256C156.132 17.6787 156.202 17.1921 156.342 16.7656C156.485 16.3392 156.688 15.9795 156.952 15.6865C157.216 15.3936 157.53 15.1706 157.895 15.0176C158.259 14.8646 158.664 14.7881 159.11 14.7881C159.729 14.7881 160.237 14.889 160.634 15.0908C161.031 15.2894 161.334 15.5661 161.542 15.9209C161.754 16.2725 161.884 16.6761 161.933 17.1318H160.512C160.476 16.891 160.408 16.681 160.307 16.502C160.206 16.3229 160.061 16.1829 159.872 16.082C159.687 15.9811 159.446 15.9307 159.149 15.9307C158.905 15.9307 158.687 15.9811 158.495 16.082C158.306 16.1797 158.147 16.3245 158.017 16.5166C157.886 16.7087 157.787 16.9463 157.719 17.2295C157.65 17.5127 157.616 17.8415 157.616 18.2158V18.6699C157.616 19.041 157.652 19.3698 157.724 19.6562C157.795 19.9395 157.901 20.1787 158.041 20.374C158.184 20.5661 158.36 20.7109 158.568 20.8086C158.777 20.9062 159.019 20.9551 159.296 20.9551C159.527 20.9551 159.719 20.9355 159.872 20.8965C160.028 20.8574 160.154 20.8102 160.248 20.7549C160.346 20.6963 160.421 20.641 160.473 20.5889V19.3291H159.135V18.2842H161.938ZM167.108 14.8906L166.947 19.8271H165.775L165.609 14.8906H167.108ZM165.57 21.3555C165.57 21.1471 165.642 20.9746 165.785 20.8379C165.932 20.6979 166.124 20.6279 166.361 20.6279C166.602 20.6279 166.794 20.6979 166.938 20.8379C167.081 20.9746 167.152 21.1471 167.152 21.3555C167.152 21.5573 167.081 21.7282 166.938 21.8682C166.794 22.0081 166.602 22.0781 166.361 22.0781C166.124 22.0781 165.932 22.0081 165.785 21.8682C165.642 21.7282 165.57 21.5573 165.57 21.3555Z" fill="black"/>
</svg>
