<svg width="215" height="42" viewBox="0 0 215 42" fill="none" xmlns="http://www.w3.org/2000/svg">
<path d="M1 20.6755C1 9.80902 9.80902 1 20.6755 1H194.061C204.928 1 213.737 9.80902 213.737 20.6755C213.737 31.542 204.928 40.351 194.061 40.351H20.6755C9.80902 40.351 1 31.542 1 20.6755Z" fill="#AEAEAE" stroke="black" stroke-width="2"/>
<path d="M52.2385 18.2852H50.4123L50.4025 17.2794H51.9357C52.2059 17.2794 52.4273 17.2452 52.5998 17.1768C52.7723 17.1052 52.9009 17.0027 52.9855 16.8692C53.0734 16.7325 53.1174 16.5665 53.1174 16.3712C53.1174 16.1498 53.0751 15.9708 52.9904 15.834C52.909 15.6973 52.7805 15.598 52.6047 15.5362C52.4321 15.4743 52.2092 15.4434 51.9357 15.4434H50.9201V21.4053H49.4553V14.296H51.9357C52.3491 14.296 52.7186 14.335 53.0441 14.4131C53.3729 14.4913 53.6512 14.6101 53.8791 14.7696C54.107 14.9291 54.2811 15.1309 54.4016 15.3751C54.522 15.6159 54.5822 15.9024 54.5822 16.2344C54.5822 16.5274 54.5155 16.7976 54.382 17.045C54.2518 17.2924 54.0451 17.4942 53.7619 17.6505C53.482 17.8067 53.1157 17.893 52.6633 17.9092L52.2385 18.2852ZM52.175 21.4053H50.0119L50.5832 20.2628H52.175C52.4321 20.2628 52.6421 20.2221 52.8049 20.1407C52.9676 20.0561 53.0881 19.9421 53.1662 19.7989C53.2443 19.6557 53.2834 19.4913 53.2834 19.3057C53.2834 19.0974 53.2476 18.9167 53.176 18.7637C53.1076 18.6107 52.9969 18.4936 52.8439 18.4122C52.6909 18.3275 52.4891 18.2852 52.2385 18.2852H50.8273L50.8371 17.2794H52.5949L52.9318 17.6749C53.3648 17.6684 53.7131 17.7449 53.9767 17.9044C54.2437 18.0606 54.4374 18.2641 54.5578 18.5147C54.6815 18.7654 54.7433 19.0339 54.7433 19.3204C54.7433 19.7761 54.6441 20.1602 54.4455 20.4727C54.2469 20.782 53.9556 21.0147 53.5715 21.171C53.1906 21.3272 52.7251 21.4053 52.175 21.4053ZM60.6125 20.2628V21.4053H56.8283V20.2628H60.6125ZM57.3068 14.296V21.4053H55.842V14.296H57.3068ZM60.1193 17.1915V18.3047H56.8283V17.1915H60.1193ZM60.6076 14.296V15.4434H56.8283V14.296H60.6076ZM61.467 14.296H64.1183C64.662 14.296 65.1291 14.3773 65.5197 14.5401C65.9136 14.7029 66.2163 14.9437 66.4279 15.2628C66.6395 15.5818 66.7453 15.974 66.7453 16.4395C66.7453 16.8204 66.6802 17.1475 66.55 17.421C66.423 17.6911 66.2424 17.9174 66.008 18.0997C65.7769 18.2787 65.5051 18.4219 65.1926 18.5294L64.7287 18.7735H62.424L62.4142 17.6309H64.1281C64.3853 17.6309 64.5985 17.5853 64.7678 17.4942C64.937 17.4031 65.064 17.2761 65.1486 17.1133C65.2365 16.9506 65.2805 16.7618 65.2805 16.5469C65.2805 16.3191 65.2381 16.1221 65.1535 15.9561C65.0689 15.7901 64.9403 15.6631 64.7678 15.5753C64.5952 15.4874 64.3788 15.4434 64.1183 15.4434H62.9318V21.4053H61.467V14.296ZM65.4416 21.4053L63.8205 18.2364L65.3683 18.2266L67.009 21.337V21.4053H65.4416ZM73.508 17.6895V20.5069C73.3973 20.6404 73.2264 20.7852 72.9953 20.9415C72.7642 21.0945 72.4663 21.2263 72.1017 21.337C71.7372 21.4477 71.2961 21.503 70.7785 21.503C70.3195 21.503 69.9012 21.4281 69.5236 21.2784C69.146 21.1254 68.8205 20.9024 68.5471 20.6094C68.2769 20.3165 68.0685 19.9584 67.9221 19.5352C67.7756 19.1088 67.7023 18.6221 67.7023 18.0753V17.6309C67.7023 17.084 67.7723 16.5974 67.9123 16.171C68.0555 15.7445 68.259 15.3848 68.5226 15.0919C68.7863 14.7989 69.1004 14.5759 69.465 14.4229C69.8296 14.2699 70.2349 14.1934 70.6808 14.1934C71.2993 14.1934 71.8071 14.2943 72.2043 14.4962C72.6014 14.6947 72.9042 14.9714 73.1125 15.3262C73.3241 15.6778 73.4543 16.0814 73.5031 16.5372H72.0822C72.0464 16.2963 71.978 16.0863 71.8771 15.9073C71.7762 15.7283 71.6314 15.5883 71.4426 15.4874C71.257 15.3865 71.0161 15.336 70.7199 15.336C70.4758 15.336 70.2577 15.3865 70.0656 15.4874C69.8768 15.585 69.7173 15.7299 69.5871 15.9219C69.4569 16.114 69.3576 16.3516 69.2892 16.6348C69.2209 16.918 69.1867 17.2468 69.1867 17.6212V18.0753C69.1867 18.4464 69.2225 18.7751 69.2941 19.0616C69.3657 19.3448 69.4715 19.584 69.6115 19.7794C69.7547 19.9714 69.9305 20.1163 70.1389 20.2139C70.3472 20.3116 70.5897 20.3604 70.8664 20.3604C71.0975 20.3604 71.2896 20.3409 71.4426 20.3018C71.5988 20.2628 71.7241 20.2156 71.8185 20.1602C71.9162 20.1016 71.9911 20.0463 72.0432 19.9942V18.7344H70.7053V17.6895H73.508ZM77.5803 15.5118L75.6467 21.4053H74.0891L76.7307 14.296H77.7219L77.5803 15.5118ZM79.1867 21.4053L77.2482 15.5118L77.092 14.296H78.093L80.7492 21.4053H79.1867ZM79.0988 18.7589V19.9063H75.3439V18.7589H79.0988ZM84.1916 18.2852H82.3654L82.3557 17.2794H83.8889C84.159 17.2794 84.3804 17.2452 84.5529 17.1768C84.7254 17.1052 84.854 17.0027 84.9387 16.8692C85.0266 16.7325 85.0705 16.5665 85.0705 16.3712C85.0705 16.1498 85.0282 15.9708 84.9435 15.834C84.8622 15.6973 84.7336 15.598 84.5578 15.5362C84.3853 15.4743 84.1623 15.4434 83.8889 15.4434H82.8732V21.4053H81.4084V14.296H83.8889C84.3023 14.296 84.6717 14.335 84.9973 14.4131C85.326 14.4913 85.6043 14.6101 85.8322 14.7696C86.0601 14.9291 86.2342 15.1309 86.3547 15.3751C86.4751 15.6159 86.5353 15.9024 86.5353 16.2344C86.5353 16.5274 86.4686 16.7976 86.3351 17.045C86.2049 17.2924 85.9982 17.4942 85.715 17.6505C85.4351 17.8067 85.0689 17.893 84.6164 17.9092L84.1916 18.2852ZM84.1281 21.4053H81.965L82.5363 20.2628H84.1281C84.3853 20.2628 84.5952 20.2221 84.758 20.1407C84.9208 20.0561 85.0412 19.9421 85.1193 19.7989C85.1974 19.6557 85.2365 19.4913 85.2365 19.3057C85.2365 19.0974 85.2007 18.9167 85.1291 18.7637C85.0607 18.6107 84.9501 18.4936 84.7971 18.4122C84.6441 18.3275 84.4422 18.2852 84.1916 18.2852H82.7805L82.7902 17.2794H84.548L84.8849 17.6749C85.3179 17.6684 85.6662 17.7449 85.9299 17.9044C86.1968 18.0606 86.3905 18.2641 86.5109 18.5147C86.6346 18.7654 86.6965 19.0339 86.6965 19.3204C86.6965 19.7761 86.5972 20.1602 86.3986 20.4727C86.2001 20.782 85.9087 21.0147 85.5246 21.171C85.1437 21.3272 84.6782 21.4053 84.1281 21.4053ZM91.7209 14.296H93.1808V18.9932C93.1808 19.5401 93.0637 20.0007 92.8293 20.3751C92.5982 20.7494 92.2775 21.031 91.8674 21.2198C91.4605 21.4086 90.9917 21.503 90.4611 21.503C89.9305 21.503 89.4585 21.4086 89.0451 21.2198C88.6349 21.031 88.3127 20.7494 88.0783 20.3751C87.8472 20.0007 87.7316 19.5401 87.7316 18.9932V14.296H89.1965V18.9932C89.1965 19.3122 89.2469 19.5727 89.3478 19.7745C89.4488 19.9763 89.5936 20.1244 89.7824 20.2188C89.9745 20.3132 90.2007 20.3604 90.4611 20.3604C90.728 20.3604 90.9543 20.3132 91.1398 20.2188C91.3286 20.1244 91.4719 19.9763 91.5695 19.7745C91.6704 19.5727 91.7209 19.3122 91.7209 18.9932V14.296ZM100.173 14.296V21.4053H98.7082L95.8517 16.6397V21.4053H94.3869V14.296H95.8517L98.7131 19.0665V14.296H100.173ZM107.082 17.6895V20.5069C106.972 20.6404 106.801 20.7852 106.57 20.9415C106.338 21.0945 106.041 21.2263 105.676 21.337C105.311 21.4477 104.87 21.503 104.353 21.503C103.894 21.503 103.475 21.4281 103.098 21.2784C102.72 21.1254 102.395 20.9024 102.121 20.6094C101.851 20.3165 101.643 19.9584 101.496 19.5352C101.35 19.1088 101.277 18.6221 101.277 18.0753V17.6309C101.277 17.084 101.347 16.5974 101.487 16.171C101.63 15.7445 101.833 15.3848 102.097 15.0919C102.361 14.7989 102.675 14.5759 103.039 14.4229C103.404 14.2699 103.809 14.1934 104.255 14.1934C104.874 14.1934 105.381 14.2943 105.779 14.4962C106.176 14.6947 106.478 14.9714 106.687 15.3262C106.898 15.6778 107.029 16.0814 107.077 16.5372H105.656C105.621 16.2963 105.552 16.0863 105.451 15.9073C105.35 15.7283 105.206 15.5883 105.017 15.4874C104.831 15.3865 104.59 15.336 104.294 15.336C104.05 15.336 103.832 15.3865 103.64 15.4874C103.451 15.585 103.292 15.7299 103.161 15.9219C103.031 16.114 102.932 16.3516 102.863 16.6348C102.795 16.918 102.761 17.2468 102.761 17.6212V18.0753C102.761 18.4464 102.797 18.7751 102.868 19.0616C102.94 19.3448 103.046 19.584 103.186 19.7794C103.329 19.9714 103.505 20.1163 103.713 20.2139C103.921 20.3116 104.164 20.3604 104.441 20.3604C104.672 20.3604 104.864 20.3409 105.017 20.3018C105.173 20.2628 105.298 20.2156 105.393 20.1602C105.49 20.1016 105.565 20.0463 105.617 19.9942V18.7344H104.279V17.6895H107.082ZM114.455 19.545C114.455 19.418 114.436 19.3041 114.397 19.2032C114.361 19.099 114.293 19.0046 114.192 18.92C114.091 18.8321 113.949 18.7458 113.767 18.6612C113.584 18.5766 113.348 18.4887 113.059 18.3975C112.737 18.2934 112.431 18.1762 112.141 18.046C111.854 17.9158 111.6 17.7644 111.379 17.5919C111.161 17.4161 110.988 17.2126 110.862 16.9815C110.738 16.7504 110.676 16.4818 110.676 16.1758C110.676 15.8796 110.741 15.6111 110.871 15.3702C111.001 15.126 111.184 14.9177 111.418 14.7452C111.653 14.5694 111.929 14.4343 112.248 14.3399C112.57 14.2455 112.924 14.1983 113.308 14.1983C113.832 14.1983 114.289 14.2927 114.68 14.4815C115.07 14.6703 115.373 14.9291 115.588 15.2579C115.806 15.5866 115.915 15.9626 115.915 16.3858H114.46C114.46 16.1775 114.416 15.9952 114.328 15.8389C114.244 15.6794 114.113 15.5541 113.938 15.463C113.765 15.3718 113.547 15.3262 113.283 15.3262C113.029 15.3262 112.818 15.3653 112.649 15.4434C112.479 15.5183 112.352 15.6208 112.268 15.751C112.183 15.878 112.141 16.0212 112.141 16.1807C112.141 16.3012 112.17 16.4102 112.229 16.5079C112.291 16.6055 112.382 16.6967 112.502 16.7813C112.623 16.8659 112.771 16.9457 112.946 17.0206C113.122 17.0954 113.326 17.1687 113.557 17.2403C113.944 17.3575 114.284 17.4893 114.577 17.6358C114.874 17.7823 115.121 17.9467 115.32 18.129C115.518 18.3113 115.668 18.518 115.769 18.7491C115.87 18.9802 115.92 19.2422 115.92 19.5352C115.92 19.8445 115.86 20.1212 115.739 20.3653C115.619 20.6094 115.445 20.8161 115.217 20.9854C114.989 21.1547 114.717 21.2833 114.402 21.3712C114.086 21.459 113.733 21.503 113.342 21.503C112.99 21.503 112.644 21.4574 112.302 21.3663C111.96 21.2719 111.649 21.1303 111.369 20.9415C111.093 20.7527 110.871 20.5118 110.705 20.2188C110.539 19.9258 110.456 19.5792 110.456 19.1788H111.926C111.926 19.4001 111.96 19.5873 112.029 19.7403C112.097 19.8933 112.193 20.017 112.317 20.1114C112.444 20.2058 112.593 20.2741 112.766 20.3165C112.942 20.3588 113.134 20.3799 113.342 20.3799C113.596 20.3799 113.804 20.3441 113.967 20.2725C114.133 20.2009 114.255 20.1016 114.333 19.9747C114.415 19.8477 114.455 19.7045 114.455 19.545ZM121.687 20.2628V21.4053H117.903V20.2628H121.687ZM118.381 14.296V21.4053H116.916V14.296H118.381ZM121.194 17.1915V18.3047H117.903V17.1915H121.194ZM121.682 14.296V15.4434H117.903V14.296H121.682ZM124.006 14.296V21.4053H122.541V14.296H124.006ZM128.264 14.296L125.446 17.8067L123.82 19.5547L123.557 18.168L124.655 16.6641L126.467 14.296H128.264ZM126.599 21.4053L124.504 18.1192L125.588 17.211L128.332 21.4053H126.599ZM131.789 15.5118L129.856 21.4053H128.298L130.94 14.296H131.931L131.789 15.5118ZM133.396 21.4053L131.457 15.5118L131.301 14.296H132.302L134.958 21.4053H133.396ZM133.308 18.7589V19.9063H129.553V18.7589H133.308ZM135.617 14.296H138.269C138.812 14.296 139.279 14.3773 139.67 14.5401C140.064 14.7029 140.367 14.9437 140.578 15.2628C140.79 15.5818 140.896 15.974 140.896 16.4395C140.896 16.8204 140.831 17.1475 140.7 17.421C140.573 17.6911 140.393 17.9174 140.158 18.0997C139.927 18.2787 139.655 18.4219 139.343 18.5294L138.879 18.7735H136.574L136.565 17.6309H138.279C138.536 17.6309 138.749 17.5853 138.918 17.4942C139.087 17.4031 139.214 17.2761 139.299 17.1133C139.387 16.9506 139.431 16.7618 139.431 16.5469C139.431 16.3191 139.389 16.1221 139.304 15.9561C139.219 15.7901 139.091 15.6631 138.918 15.5753C138.746 15.4874 138.529 15.4434 138.269 15.4434H137.082V21.4053H135.617V14.296ZM139.592 21.4053L137.971 18.2364L139.519 18.2266L141.159 21.337V21.4053H139.592ZM144.914 15.5118L142.981 21.4053H141.423L144.065 14.296H145.056L144.914 15.5118ZM146.521 21.4053L144.582 15.5118L144.426 14.296H145.427L148.083 21.4053H146.521ZM146.433 18.7589V19.9063H142.678V18.7589H146.433ZM154.529 14.296V21.4053H153.064L150.207 16.6397V21.4053H148.742V14.296H150.207L153.069 19.0665V14.296H154.529ZM161.438 17.6895V20.5069C161.327 20.6404 161.156 20.7852 160.925 20.9415C160.694 21.0945 160.396 21.2263 160.031 21.337C159.667 21.4477 159.226 21.503 158.708 21.503C158.249 21.503 157.831 21.4281 157.453 21.2784C157.076 21.1254 156.75 20.9024 156.477 20.6094C156.207 20.3165 155.998 19.9584 155.852 19.5352C155.705 19.1088 155.632 18.6221 155.632 18.0753V17.6309C155.632 17.084 155.702 16.5974 155.842 16.171C155.985 15.7445 156.189 15.3848 156.452 15.0919C156.716 14.7989 157.03 14.5759 157.395 14.4229C157.759 14.2699 158.165 14.1934 158.611 14.1934C159.229 14.1934 159.737 14.2943 160.134 14.4962C160.531 14.6947 160.834 14.9714 161.042 15.3262C161.254 15.6778 161.384 16.0814 161.433 16.5372H160.012C159.976 16.2963 159.908 16.0863 159.807 15.9073C159.706 15.7283 159.561 15.5883 159.372 15.4874C159.187 15.3865 158.946 15.336 158.65 15.336C158.405 15.336 158.187 15.3865 157.995 15.4874C157.806 15.585 157.647 15.7299 157.517 15.9219C157.387 16.114 157.287 16.3516 157.219 16.6348C157.151 16.918 157.116 17.2468 157.116 17.6212V18.0753C157.116 18.4464 157.152 18.7751 157.224 19.0616C157.295 19.3448 157.401 19.584 157.541 19.7794C157.684 19.9714 157.86 20.1163 158.069 20.2139C158.277 20.3116 158.519 20.3604 158.796 20.3604C159.027 20.3604 159.219 20.3409 159.372 20.3018C159.529 20.2628 159.654 20.2156 159.748 20.1602C159.846 20.1016 159.921 20.0463 159.973 19.9942V18.7344H158.635V17.6895H161.438ZM166.609 14.296L166.447 19.2325H165.276L165.11 14.296H166.609ZM165.07 20.7608C165.07 20.5525 165.142 20.3799 165.285 20.2432C165.432 20.1033 165.624 20.0333 165.862 20.0333C166.102 20.0333 166.294 20.1033 166.438 20.2432C166.581 20.3799 166.653 20.5525 166.653 20.7608C166.653 20.9626 166.581 21.1335 166.438 21.2735C166.294 21.4135 166.102 21.4835 165.862 21.4835C165.624 21.4835 165.432 21.4135 165.285 21.2735C165.142 21.1335 165.07 20.9626 165.07 20.7608Z" fill="black"/>
</svg>
