<svg width="62" height="61" viewBox="0 0 62 61" fill="none" xmlns="http://www.w3.org/2000/svg">
<ellipse cx="31.2679" cy="30.3809" rx="30.4095" ry="29.9337" fill="#DD2A7B"/>
<ellipse cx="31.0623" cy="30.1784" rx="21.4491" ry="21.1134" fill="white"/>
<path d="M31.0623 24.9455C30.011 24.9459 28.9834 25.2532 28.1094 25.8284C27.2355 26.4036 26.5544 27.221 26.1524 28.1772C25.7503 29.1334 25.6453 30.1855 25.8507 31.2005C26.056 32.2154 26.5625 33.1476 27.306 33.8793C28.0496 34.6109 28.9968 35.1091 30.028 35.3108C31.0591 35.5126 32.1279 35.4088 33.0991 35.0127C34.0704 34.6166 34.9005 33.9459 35.4846 33.0854C36.0686 32.2249 36.3804 31.2133 36.3804 30.1784C36.3793 28.7905 35.8186 27.4598 34.8215 26.4787C33.8243 25.4975 32.4723 24.9461 31.0623 24.9455ZM43.4913 20.9233C43.2207 20.2482 42.812 19.635 42.2907 19.1218C41.7693 18.6086 41.1464 18.2064 40.4606 17.94C38.3676 17.1267 33.3845 17.3092 31.0623 17.3092C28.7402 17.3092 23.762 17.1198 21.6631 17.94C20.9773 18.2064 20.3543 18.6086 19.833 19.1218C19.3116 19.635 18.903 20.2482 18.6323 20.9233C17.8071 22.9835 17.9915 27.8936 17.9915 30.1774C17.9915 32.4613 17.8071 37.3655 18.6363 39.4325C18.907 40.1076 19.3156 40.7208 19.837 41.234C20.3583 41.7472 20.9812 42.1494 21.6671 42.4158C23.76 43.2291 28.7432 43.0466 31.0663 43.0466C33.3895 43.0466 38.3656 43.236 40.4646 42.4158C41.1504 42.1494 41.7733 41.7472 42.2947 41.234C42.816 40.7208 43.2247 40.1076 43.4953 39.4325C44.3275 37.3723 44.1361 32.4622 44.1361 30.1784C44.1361 27.8945 44.3275 22.9913 43.4953 20.9243L43.4913 20.9233ZM31.0623 38.2229C29.446 38.2229 27.8659 37.7511 26.522 36.8671C25.1781 35.9832 24.1306 34.7268 23.512 33.2569C22.8935 31.7869 22.7317 30.1695 23.047 28.609C23.3623 27.0485 24.1407 25.6151 25.2836 24.4901C26.4265 23.365 27.8827 22.5989 29.468 22.2885C31.0533 21.9781 32.6965 22.1374 34.1898 22.7462C35.6831 23.3551 36.9594 24.3862 37.8574 25.7091C38.7554 27.032 39.2347 28.5873 39.2347 30.1784C39.236 31.2352 39.0255 32.2818 38.6153 33.2584C38.2051 34.235 37.6031 35.1223 36.844 35.8696C36.0849 36.6168 35.1834 37.2093 34.1913 37.6132C33.1992 38.017 32.1359 38.2242 31.0623 38.2229ZM39.5716 23.6741C39.1943 23.6743 38.8253 23.5644 38.5115 23.3581C38.1977 23.1519 37.953 22.8588 37.8085 22.5157C37.664 22.1726 37.6261 21.795 37.6996 21.4307C37.773 21.0664 37.9546 20.7317 38.2214 20.469C38.4881 20.2063 38.828 20.0274 39.1981 19.9549C39.5681 19.8823 39.9517 19.9195 40.3003 20.0616C40.649 20.2036 40.9469 20.4443 41.1566 20.7531C41.3662 21.0619 41.4781 21.425 41.4781 21.7964C41.4792 22.0431 41.4307 22.2875 41.3356 22.5157C41.2405 22.7438 41.1005 22.9513 40.9238 23.1261C40.747 23.3009 40.5369 23.4397 40.3056 23.5344C40.0742 23.6291 39.8261 23.6779 39.5756 23.678L39.5716 23.6741ZM48.603 8.20319H13.5216C12.2529 8.20319 11.0361 8.69931 10.1389 9.58241C9.2418 10.4655 8.73779 11.6633 8.73779 12.9122V47.4446C8.73779 48.6935 9.2418 49.8913 10.1389 50.7744C11.0361 51.6575 12.2529 52.1536 13.5216 52.1536H48.603C49.8718 52.1536 51.0886 51.6575 51.9857 50.7744C52.8829 49.8913 53.3869 48.6935 53.3869 47.4446V12.9122C53.3869 11.6633 52.8829 10.4655 51.9857 9.58241C51.0886 8.69931 49.8718 8.20319 48.603 8.20319ZM46.8968 36.6532C46.7682 39.1676 46.1852 41.3955 44.3205 43.2262C42.4558 45.0568 40.1945 45.6425 37.6431 45.7621C35.011 45.9083 27.1197 45.9083 24.4876 45.7621C21.9332 45.6356 19.6778 45.0607 17.8101 43.2262C15.9424 41.3916 15.3554 39.1627 15.2338 36.6532C15.0853 34.0613 15.0853 26.2925 15.2338 23.7035C15.3624 21.1892 15.9385 18.9612 17.8101 17.1306C19.6818 15.3 21.9432 14.7212 24.4876 14.6015C27.1197 14.4553 35.011 14.4553 37.6431 14.6015C40.1975 14.7281 42.4598 15.3029 44.3205 17.1375C46.1812 18.972 46.7752 21.2009 46.8968 23.7153C47.0453 26.2974 47.0453 34.0594 46.8968 36.6532Z" fill="#DD2A7B"/>
</svg>
