<svg width="169" height="35" viewBox="0 0 169 35" fill="none" xmlns="http://www.w3.org/2000/svg">
<path d="M16.6074 8.78125H19.0879L22.7402 19.2207L26.3926 8.78125H28.873L23.7363 23H21.7441L16.6074 8.78125ZM15.2695 8.78125H17.7402L18.1895 18.957V23H15.2695V8.78125ZM27.7402 8.78125H30.2207V23H27.291V18.957L27.7402 8.78125ZM38.8633 20.4707V12.4336H41.6758V23H39.0293L38.8633 20.4707ZM39.1758 18.3027L40.0059 18.2832C40.0059 18.9863 39.9245 19.6406 39.7617 20.2461C39.599 20.8451 39.3548 21.3659 39.0293 21.8086C38.7038 22.2448 38.2936 22.5866 37.7988 22.834C37.304 23.0749 36.7214 23.1953 36.0508 23.1953C35.5365 23.1953 35.0612 23.1237 34.625 22.9805C34.1953 22.8307 33.8242 22.5996 33.5117 22.2871C33.2057 21.9681 32.9648 21.5612 32.7891 21.0664C32.6198 20.5651 32.5352 19.9629 32.5352 19.2598V12.4336H35.3477V19.2793C35.3477 19.5918 35.3835 19.8555 35.4551 20.0703C35.5332 20.2852 35.6406 20.4609 35.7773 20.5977C35.9141 20.7344 36.0736 20.832 36.2559 20.8906C36.4447 20.9492 36.653 20.9785 36.8809 20.9785C37.4603 20.9785 37.916 20.8613 38.248 20.627C38.5866 20.3926 38.8242 20.0736 38.9609 19.6699C39.1042 19.2598 39.1758 18.804 39.1758 18.3027ZM46.793 8V23H43.9707V8H46.793ZM54.8203 20.6172V15.9102C54.8203 15.5716 54.765 15.2819 54.6543 15.041C54.5436 14.7936 54.3711 14.6016 54.1367 14.4648C53.9089 14.3281 53.6126 14.2598 53.248 14.2598C52.9355 14.2598 52.6654 14.3151 52.4375 14.4258C52.2096 14.5299 52.0339 14.6829 51.9102 14.8848C51.7865 15.0801 51.7246 15.3112 51.7246 15.5781H48.9121C48.9121 15.1289 49.0163 14.7025 49.2246 14.2988C49.4329 13.8952 49.7357 13.5404 50.1328 13.2344C50.5299 12.9219 51.002 12.6777 51.5488 12.502C52.1022 12.3262 52.7207 12.2383 53.4043 12.2383C54.2246 12.2383 54.9538 12.375 55.5918 12.6484C56.2298 12.9219 56.7311 13.332 57.0957 13.8789C57.4668 14.4258 57.6523 15.1094 57.6523 15.9297V20.4512C57.6523 21.0306 57.6882 21.5059 57.7598 21.877C57.8314 22.2415 57.9355 22.5605 58.0723 22.834V23H55.2305C55.0938 22.7135 54.9896 22.3555 54.918 21.9258C54.8529 21.4896 54.8203 21.0534 54.8203 20.6172ZM55.1914 16.5645L55.2109 18.1562H53.6387C53.2676 18.1562 52.9453 18.1986 52.6719 18.2832C52.3984 18.3678 52.1738 18.4883 51.998 18.6445C51.8223 18.7943 51.6921 18.9701 51.6074 19.1719C51.5293 19.3737 51.4902 19.5951 51.4902 19.8359C51.4902 20.0768 51.5456 20.2949 51.6562 20.4902C51.7669 20.679 51.9264 20.8288 52.1348 20.9395C52.3431 21.0436 52.5872 21.0957 52.8672 21.0957C53.2904 21.0957 53.6582 21.0111 53.9707 20.8418C54.2832 20.6725 54.5241 20.4642 54.6934 20.2168C54.8691 19.9694 54.9603 19.735 54.9668 19.5137L55.709 20.7051C55.6048 20.972 55.4616 21.2487 55.2793 21.5352C55.1035 21.8216 54.8789 22.0918 54.6055 22.3457C54.332 22.5931 54.0033 22.7982 53.6191 22.9609C53.235 23.1172 52.7793 23.1953 52.252 23.1953C51.5814 23.1953 50.9727 23.0618 50.4258 22.7949C49.8854 22.5215 49.4557 22.1471 49.1367 21.6719C48.8242 21.1901 48.668 20.6432 48.668 20.0312C48.668 19.4779 48.7721 18.9863 48.9805 18.5566C49.1888 18.127 49.4948 17.7656 49.8984 17.4727C50.3086 17.1732 50.8197 16.9486 51.4316 16.7988C52.0436 16.6426 52.7533 16.5645 53.5605 16.5645H55.1914ZM62.7891 12.4336V23H59.9668V12.4336H62.7891ZM59.791 9.67969C59.791 9.26953 59.9342 8.93099 60.2207 8.66406C60.5072 8.39714 60.8913 8.26367 61.373 8.26367C61.8483 8.26367 62.2292 8.39714 62.5156 8.66406C62.8086 8.93099 62.9551 9.26953 62.9551 9.67969C62.9551 10.0898 62.8086 10.4284 62.5156 10.6953C62.2292 10.9622 61.8483 11.0957 61.373 11.0957C60.8913 11.0957 60.5072 10.9622 60.2207 10.6953C59.9342 10.4284 59.791 10.0898 59.791 9.67969ZM73.0625 8V23H70.2402V8H73.0625ZM81.0898 20.6172V15.9102C81.0898 15.5716 81.0345 15.2819 80.9238 15.041C80.8132 14.7936 80.6406 14.6016 80.4062 14.4648C80.1784 14.3281 79.8822 14.2598 79.5176 14.2598C79.2051 14.2598 78.9349 14.3151 78.707 14.4258C78.4792 14.5299 78.3034 14.6829 78.1797 14.8848C78.056 15.0801 77.9941 15.3112 77.9941 15.5781H75.1816C75.1816 15.1289 75.2858 14.7025 75.4941 14.2988C75.7025 13.8952 76.0052 13.5404 76.4023 13.2344C76.7995 12.9219 77.2715 12.6777 77.8184 12.502C78.3717 12.3262 78.9902 12.2383 79.6738 12.2383C80.4941 12.2383 81.2233 12.375 81.8613 12.6484C82.4993 12.9219 83.0007 13.332 83.3652 13.8789C83.7363 14.4258 83.9219 15.1094 83.9219 15.9297V20.4512C83.9219 21.0306 83.9577 21.5059 84.0293 21.877C84.1009 22.2415 84.2051 22.5605 84.3418 22.834V23H81.5C81.3633 22.7135 81.2591 22.3555 81.1875 21.9258C81.1224 21.4896 81.0898 21.0534 81.0898 20.6172ZM81.4609 16.5645L81.4805 18.1562H79.9082C79.5371 18.1562 79.2148 18.1986 78.9414 18.2832C78.668 18.3678 78.4434 18.4883 78.2676 18.6445C78.0918 18.7943 77.9616 18.9701 77.877 19.1719C77.7988 19.3737 77.7598 19.5951 77.7598 19.8359C77.7598 20.0768 77.8151 20.2949 77.9258 20.4902C78.0365 20.679 78.196 20.8288 78.4043 20.9395C78.6126 21.0436 78.8568 21.0957 79.1367 21.0957C79.5599 21.0957 79.9277 21.0111 80.2402 20.8418C80.5527 20.6725 80.7936 20.4642 80.9629 20.2168C81.1387 19.9694 81.2298 19.735 81.2363 19.5137L81.9785 20.7051C81.8743 20.972 81.7311 21.2487 81.5488 21.5352C81.373 21.8216 81.1484 22.0918 80.875 22.3457C80.6016 22.5931 80.2728 22.7982 79.8887 22.9609C79.5046 23.1172 79.0488 23.1953 78.5215 23.1953C77.8509 23.1953 77.2422 23.0618 76.6953 22.7949C76.1549 22.5215 75.7253 22.1471 75.4062 21.6719C75.0938 21.1901 74.9375 20.6432 74.9375 20.0312C74.9375 19.4779 75.0417 18.9863 75.25 18.5566C75.4583 18.127 75.7643 17.7656 76.168 17.4727C76.5781 17.1732 77.0892 16.9486 77.7012 16.7988C78.3132 16.6426 79.0228 16.5645 79.8301 16.5645H81.4609ZM91.2656 12.4336V14.4258H85.1133V12.4336H91.2656ZM86.6367 9.82617H89.4492V19.8164C89.4492 20.1224 89.4883 20.3568 89.5664 20.5195C89.651 20.6823 89.7747 20.7962 89.9375 20.8613C90.1003 20.9199 90.3053 20.9492 90.5527 20.9492C90.7285 20.9492 90.8848 20.9427 91.0215 20.9297C91.1647 20.9102 91.2852 20.8906 91.3828 20.8711L91.3926 22.9414C91.1517 23.0195 90.8913 23.0814 90.6113 23.127C90.3314 23.1725 90.0221 23.1953 89.6836 23.1953C89.0651 23.1953 88.5247 23.0944 88.0625 22.8926C87.6068 22.6842 87.2552 22.3522 87.0078 21.8965C86.7604 21.4408 86.6367 20.8418 86.6367 20.0996V9.82617ZM95.8359 12.4336V23H93.0137V12.4336H95.8359ZM92.8379 9.67969C92.8379 9.26953 92.9811 8.93099 93.2676 8.66406C93.554 8.39714 93.9382 8.26367 94.4199 8.26367C94.8952 8.26367 95.276 8.39714 95.5625 8.66406C95.8555 8.93099 96.002 9.26953 96.002 9.67969C96.002 10.0898 95.8555 10.4284 95.5625 10.6953C95.276 10.9622 94.8952 11.0957 94.4199 11.0957C93.9382 11.0957 93.554 10.9622 93.2676 10.6953C92.9811 10.4284 92.8379 10.0898 92.8379 9.67969ZM100.904 8V23H98.0918V8H100.904ZM100.504 17.3457H99.7324C99.7389 16.61 99.8366 15.9329 100.025 15.3145C100.214 14.6895 100.484 14.1491 100.836 13.6934C101.188 13.2311 101.607 12.873 102.096 12.6191C102.59 12.3652 103.137 12.2383 103.736 12.2383C104.257 12.2383 104.729 12.3132 105.152 12.4629C105.582 12.6061 105.95 12.8405 106.256 13.166C106.568 13.485 106.809 13.9049 106.979 14.4258C107.148 14.9466 107.232 15.5781 107.232 16.3203V23H104.4V16.3008C104.4 15.832 104.332 15.4642 104.195 15.1973C104.065 14.9238 103.873 14.7318 103.619 14.6211C103.372 14.5039 103.066 14.4453 102.701 14.4453C102.298 14.4453 101.952 14.5202 101.666 14.6699C101.386 14.8197 101.161 15.028 100.992 15.2949C100.823 15.5553 100.699 15.8613 100.621 16.2129C100.543 16.5645 100.504 16.9421 100.504 17.3457ZM115.074 20.6172V15.9102C115.074 15.5716 115.019 15.2819 114.908 15.041C114.798 14.7936 114.625 14.6016 114.391 14.4648C114.163 14.3281 113.867 14.2598 113.502 14.2598C113.189 14.2598 112.919 14.3151 112.691 14.4258C112.464 14.5299 112.288 14.6829 112.164 14.8848C112.04 15.0801 111.979 15.3112 111.979 15.5781H109.166C109.166 15.1289 109.27 14.7025 109.479 14.2988C109.687 13.8952 109.99 13.5404 110.387 13.2344C110.784 12.9219 111.256 12.6777 111.803 12.502C112.356 12.3262 112.975 12.2383 113.658 12.2383C114.479 12.2383 115.208 12.375 115.846 12.6484C116.484 12.9219 116.985 13.332 117.35 13.8789C117.721 14.4258 117.906 15.1094 117.906 15.9297V20.4512C117.906 21.0306 117.942 21.5059 118.014 21.877C118.085 22.2415 118.189 22.5605 118.326 22.834V23H115.484C115.348 22.7135 115.243 22.3555 115.172 21.9258C115.107 21.4896 115.074 21.0534 115.074 20.6172ZM115.445 16.5645L115.465 18.1562H113.893C113.521 18.1562 113.199 18.1986 112.926 18.2832C112.652 18.3678 112.428 18.4883 112.252 18.6445C112.076 18.7943 111.946 18.9701 111.861 19.1719C111.783 19.3737 111.744 19.5951 111.744 19.8359C111.744 20.0768 111.799 20.2949 111.91 20.4902C112.021 20.679 112.18 20.8288 112.389 20.9395C112.597 21.0436 112.841 21.0957 113.121 21.0957C113.544 21.0957 113.912 21.0111 114.225 20.8418C114.537 20.6725 114.778 20.4642 114.947 20.2168C115.123 19.9694 115.214 19.735 115.221 19.5137L115.963 20.7051C115.859 20.972 115.715 21.2487 115.533 21.5352C115.357 21.8216 115.133 22.0918 114.859 22.3457C114.586 22.5931 114.257 22.7982 113.873 22.9609C113.489 23.1172 113.033 23.1953 112.506 23.1953C111.835 23.1953 111.227 23.0618 110.68 22.7949C110.139 22.5215 109.71 22.1471 109.391 21.6719C109.078 21.1901 108.922 20.6432 108.922 20.0312C108.922 19.4779 109.026 18.9863 109.234 18.5566C109.443 18.127 109.749 17.7656 110.152 17.4727C110.562 17.1732 111.074 16.9486 111.686 16.7988C112.298 16.6426 113.007 16.5645 113.814 16.5645H115.445ZM122.828 14.6895V23H120.016V12.4336H122.652L122.828 14.6895ZM122.418 17.3457H121.656C121.656 16.5645 121.757 15.8613 121.959 15.2363C122.161 14.6048 122.444 14.0677 122.809 13.625C123.173 13.1758 123.606 12.834 124.107 12.5996C124.615 12.3587 125.182 12.2383 125.807 12.2383C126.301 12.2383 126.754 12.3099 127.164 12.4531C127.574 12.5964 127.926 12.8242 128.219 13.1367C128.518 13.4492 128.746 13.8626 128.902 14.377C129.065 14.8913 129.146 15.5195 129.146 16.2617V23H126.314V16.252C126.314 15.7832 126.249 15.4186 126.119 15.1582C125.989 14.8978 125.797 14.7155 125.543 14.6113C125.296 14.5007 124.99 14.4453 124.625 14.4453C124.247 14.4453 123.919 14.5202 123.639 14.6699C123.365 14.8197 123.137 15.028 122.955 15.2949C122.779 15.5553 122.646 15.8613 122.555 16.2129C122.464 16.5645 122.418 16.9421 122.418 17.3457Z" fill="black"/>
<rect width="169" height="35" rx="17.5" fill="white"/>
<path d="M46.8252 12.0469H48.5615L51.1182 19.3545L53.6748 12.0469H55.4111L51.8154 22H50.4209L46.8252 12.0469ZM45.8887 12.0469H47.6182L47.9326 19.1699V22H45.8887V12.0469ZM54.6182 12.0469H56.3545V22H54.3037V19.1699L54.6182 12.0469ZM62.4043 20.2295V14.6035H64.373V22H62.5205L62.4043 20.2295ZM62.623 18.7119L63.2041 18.6982C63.2041 19.1904 63.1471 19.6484 63.0332 20.0723C62.9193 20.4915 62.7484 20.8561 62.5205 21.166C62.2926 21.4714 62.0055 21.7106 61.6592 21.8838C61.3128 22.0524 60.9049 22.1367 60.4355 22.1367C60.0755 22.1367 59.7428 22.0866 59.4375 21.9863C59.1367 21.8815 58.877 21.7197 58.6582 21.501C58.444 21.2777 58.2754 20.9928 58.1523 20.6465C58.0339 20.2956 57.9746 19.874 57.9746 19.3818V14.6035H59.9434V19.3955C59.9434 19.6143 59.9684 19.7988 60.0186 19.9492C60.0732 20.0996 60.1484 20.2227 60.2441 20.3184C60.3398 20.4141 60.4515 20.4824 60.5791 20.5234C60.7113 20.5645 60.8571 20.585 61.0166 20.585C61.4222 20.585 61.7412 20.5029 61.9736 20.3389C62.2106 20.1748 62.377 19.9515 62.4727 19.6689C62.5729 19.3818 62.623 19.0628 62.623 18.7119ZM67.9551 11.5V22H65.9795V11.5H67.9551ZM73.5742 20.332V17.0371C73.5742 16.8001 73.5355 16.5973 73.458 16.4287C73.3805 16.2555 73.2598 16.1211 73.0957 16.0254C72.9362 15.9297 72.7288 15.8818 72.4736 15.8818C72.2549 15.8818 72.0658 15.9206 71.9062 15.998C71.7467 16.071 71.6237 16.1781 71.5371 16.3193C71.4505 16.4561 71.4072 16.6178 71.4072 16.8047H69.4385C69.4385 16.4902 69.5114 16.1917 69.6572 15.9092C69.8031 15.6266 70.015 15.3783 70.293 15.1641C70.571 14.9453 70.9014 14.7744 71.2842 14.6514C71.6715 14.5283 72.1045 14.4668 72.583 14.4668C73.1572 14.4668 73.6676 14.5625 74.1143 14.7539C74.5609 14.9453 74.9118 15.2324 75.167 15.6152C75.4268 15.998 75.5566 16.4766 75.5566 17.0508V20.2158C75.5566 20.6214 75.5817 20.9541 75.6318 21.2139C75.682 21.4691 75.7549 21.6924 75.8506 21.8838V22H73.8613C73.7656 21.7995 73.6927 21.5488 73.6426 21.248C73.597 20.9427 73.5742 20.6374 73.5742 20.332ZM73.834 17.4951L73.8477 18.6094H72.7471C72.4873 18.6094 72.2617 18.639 72.0703 18.6982C71.8789 18.7575 71.7217 18.8418 71.5986 18.9512C71.4756 19.056 71.3844 19.179 71.3252 19.3203C71.2705 19.4616 71.2432 19.6165 71.2432 19.7852C71.2432 19.9538 71.2819 20.1064 71.3594 20.2432C71.4368 20.3753 71.5485 20.4801 71.6943 20.5576C71.8402 20.6305 72.0111 20.667 72.207 20.667C72.5033 20.667 72.7607 20.6077 72.9795 20.4893C73.1982 20.3708 73.3669 20.2249 73.4854 20.0518C73.6084 19.8786 73.6722 19.7145 73.6768 19.5596L74.1963 20.3936C74.1234 20.5804 74.0231 20.7741 73.8955 20.9746C73.7725 21.1751 73.6152 21.3643 73.4238 21.542C73.2324 21.7152 73.0023 21.8587 72.7334 21.9727C72.4645 22.082 72.1455 22.1367 71.7764 22.1367C71.307 22.1367 70.8809 22.0433 70.498 21.8564C70.1198 21.665 69.819 21.403 69.5957 21.0703C69.377 20.7331 69.2676 20.3503 69.2676 19.9219C69.2676 19.5345 69.3405 19.1904 69.4863 18.8896C69.6322 18.5889 69.8464 18.3359 70.1289 18.1309C70.416 17.9212 70.7738 17.764 71.2021 17.6592C71.6305 17.5498 72.1273 17.4951 72.6924 17.4951H73.834ZM79.1523 14.6035V22H77.1768V14.6035H79.1523ZM77.0537 12.6758C77.0537 12.3887 77.154 12.1517 77.3545 11.9648C77.555 11.778 77.8239 11.6846 78.1611 11.6846C78.4938 11.6846 78.7604 11.778 78.9609 11.9648C79.166 12.1517 79.2686 12.3887 79.2686 12.6758C79.2686 12.9629 79.166 13.1999 78.9609 13.3867C78.7604 13.5736 78.4938 13.667 78.1611 13.667C77.8239 13.667 77.555 13.5736 77.3545 13.3867C77.154 13.1999 77.0537 12.9629 77.0537 12.6758ZM86.3438 11.5V22H84.3682V11.5H86.3438ZM91.9629 20.332V17.0371C91.9629 16.8001 91.9242 16.5973 91.8467 16.4287C91.7692 16.2555 91.6484 16.1211 91.4844 16.0254C91.3249 15.9297 91.1175 15.8818 90.8623 15.8818C90.6436 15.8818 90.4544 15.9206 90.2949 15.998C90.1354 16.071 90.0124 16.1781 89.9258 16.3193C89.8392 16.4561 89.7959 16.6178 89.7959 16.8047H87.8271C87.8271 16.4902 87.9001 16.1917 88.0459 15.9092C88.1917 15.6266 88.4036 15.3783 88.6816 15.1641C88.9596 14.9453 89.29 14.7744 89.6729 14.6514C90.0602 14.5283 90.4932 14.4668 90.9717 14.4668C91.5459 14.4668 92.0563 14.5625 92.5029 14.7539C92.9495 14.9453 93.3005 15.2324 93.5557 15.6152C93.8154 15.998 93.9453 16.4766 93.9453 17.0508V20.2158C93.9453 20.6214 93.9704 20.9541 94.0205 21.2139C94.0706 21.4691 94.1436 21.6924 94.2393 21.8838V22H92.25C92.1543 21.7995 92.0814 21.5488 92.0312 21.248C91.9857 20.9427 91.9629 20.6374 91.9629 20.332ZM92.2227 17.4951L92.2363 18.6094H91.1357C90.876 18.6094 90.6504 18.639 90.459 18.6982C90.2676 18.7575 90.1104 18.8418 89.9873 18.9512C89.8643 19.056 89.7731 19.179 89.7139 19.3203C89.6592 19.4616 89.6318 19.6165 89.6318 19.7852C89.6318 19.9538 89.6706 20.1064 89.748 20.2432C89.8255 20.3753 89.9372 20.4801 90.083 20.5576C90.2288 20.6305 90.3997 20.667 90.5957 20.667C90.8919 20.667 91.1494 20.6077 91.3682 20.4893C91.5869 20.3708 91.7555 20.2249 91.874 20.0518C91.9971 19.8786 92.0609 19.7145 92.0654 19.5596L92.585 20.3936C92.512 20.5804 92.4118 20.7741 92.2842 20.9746C92.1611 21.1751 92.0039 21.3643 91.8125 21.542C91.6211 21.7152 91.391 21.8587 91.1221 21.9727C90.8532 22.082 90.5342 22.1367 90.165 22.1367C89.6956 22.1367 89.2695 22.0433 88.8867 21.8564C88.5085 21.665 88.2077 21.403 87.9844 21.0703C87.7656 20.7331 87.6562 20.3503 87.6562 19.9219C87.6562 19.5345 87.7292 19.1904 87.875 18.8896C88.0208 18.5889 88.235 18.3359 88.5176 18.1309C88.8047 17.9212 89.1624 17.764 89.5908 17.6592C90.0192 17.5498 90.516 17.4951 91.0811 17.4951H92.2227ZM99.0859 14.6035V15.998H94.7793V14.6035H99.0859ZM95.8457 12.7783H97.8145V19.7715C97.8145 19.9857 97.8418 20.1497 97.8965 20.2637C97.9557 20.3776 98.0423 20.4574 98.1562 20.5029C98.2702 20.5439 98.4137 20.5645 98.5869 20.5645C98.71 20.5645 98.8193 20.5599 98.915 20.5508C99.0153 20.5371 99.0996 20.5234 99.168 20.5098L99.1748 21.959C99.0062 22.0137 98.8239 22.057 98.6279 22.0889C98.432 22.1208 98.2155 22.1367 97.9785 22.1367C97.5456 22.1367 97.1673 22.0661 96.8438 21.9248C96.5247 21.779 96.2786 21.5465 96.1055 21.2275C95.9323 20.9085 95.8457 20.4893 95.8457 19.9697V12.7783ZM102.285 14.6035V22H100.31V14.6035H102.285ZM100.187 12.6758C100.187 12.3887 100.287 12.1517 100.487 11.9648C100.688 11.778 100.957 11.6846 101.294 11.6846C101.627 11.6846 101.893 11.778 102.094 11.9648C102.299 12.1517 102.401 12.3887 102.401 12.6758C102.401 12.9629 102.299 13.1999 102.094 13.3867C101.893 13.5736 101.627 13.667 101.294 13.667C100.957 13.667 100.688 13.5736 100.487 13.3867C100.287 13.1999 100.187 12.9629 100.187 12.6758ZM105.833 11.5V22H103.864V11.5H105.833ZM105.553 18.042H105.013C105.017 17.527 105.086 17.0531 105.218 16.6201C105.35 16.1826 105.539 15.8044 105.785 15.4854C106.031 15.1618 106.325 14.9111 106.667 14.7334C107.013 14.5557 107.396 14.4668 107.815 14.4668C108.18 14.4668 108.51 14.5192 108.807 14.624C109.107 14.7243 109.365 14.8883 109.579 15.1162C109.798 15.3395 109.966 15.6335 110.085 15.998C110.203 16.3626 110.263 16.8047 110.263 17.3242V22H108.28V17.3105C108.28 16.9824 108.232 16.7249 108.137 16.5381C108.046 16.3467 107.911 16.2122 107.733 16.1348C107.56 16.0527 107.346 16.0117 107.091 16.0117C106.808 16.0117 106.567 16.0641 106.366 16.1689C106.17 16.2738 106.013 16.4196 105.895 16.6064C105.776 16.7887 105.689 17.0029 105.635 17.249C105.58 17.4951 105.553 17.7594 105.553 18.042ZM115.752 20.332V17.0371C115.752 16.8001 115.713 16.5973 115.636 16.4287C115.558 16.2555 115.438 16.1211 115.273 16.0254C115.114 15.9297 114.907 15.8818 114.651 15.8818C114.433 15.8818 114.243 15.9206 114.084 15.998C113.924 16.071 113.801 16.1781 113.715 16.3193C113.628 16.4561 113.585 16.6178 113.585 16.8047H111.616C111.616 16.4902 111.689 16.1917 111.835 15.9092C111.981 15.6266 112.193 15.3783 112.471 15.1641C112.749 14.9453 113.079 14.7744 113.462 14.6514C113.849 14.5283 114.282 14.4668 114.761 14.4668C115.335 14.4668 115.845 14.5625 116.292 14.7539C116.739 14.9453 117.09 15.2324 117.345 15.6152C117.604 15.998 117.734 16.4766 117.734 17.0508V20.2158C117.734 20.6214 117.759 20.9541 117.81 21.2139C117.86 21.4691 117.933 21.6924 118.028 21.8838V22H116.039C115.943 21.7995 115.87 21.5488 115.82 21.248C115.775 20.9427 115.752 20.6374 115.752 20.332ZM116.012 17.4951L116.025 18.6094H114.925C114.665 18.6094 114.439 18.639 114.248 18.6982C114.057 18.7575 113.899 18.8418 113.776 18.9512C113.653 19.056 113.562 19.179 113.503 19.3203C113.448 19.4616 113.421 19.6165 113.421 19.7852C113.421 19.9538 113.46 20.1064 113.537 20.2432C113.615 20.3753 113.726 20.4801 113.872 20.5576C114.018 20.6305 114.189 20.667 114.385 20.667C114.681 20.667 114.938 20.6077 115.157 20.4893C115.376 20.3708 115.545 20.2249 115.663 20.0518C115.786 19.8786 115.85 19.7145 115.854 19.5596L116.374 20.3936C116.301 20.5804 116.201 20.7741 116.073 20.9746C115.95 21.1751 115.793 21.3643 115.602 21.542C115.41 21.7152 115.18 21.8587 114.911 21.9727C114.642 22.082 114.323 22.1367 113.954 22.1367C113.485 22.1367 113.059 22.0433 112.676 21.8564C112.298 21.665 111.997 21.403 111.773 21.0703C111.555 20.7331 111.445 20.3503 111.445 19.9219C111.445 19.5345 111.518 19.1904 111.664 18.8896C111.81 18.5889 112.024 18.3359 112.307 18.1309C112.594 17.9212 112.951 17.764 113.38 17.6592C113.808 17.5498 114.305 17.4951 114.87 17.4951H116.012ZM121.18 16.1826V22H119.211V14.6035H121.057L121.18 16.1826ZM120.893 18.042H120.359C120.359 17.4951 120.43 17.0029 120.571 16.5654C120.713 16.1234 120.911 15.7474 121.166 15.4375C121.421 15.123 121.724 14.8838 122.075 14.7197C122.431 14.5511 122.827 14.4668 123.265 14.4668C123.611 14.4668 123.928 14.5169 124.215 14.6172C124.502 14.7174 124.748 14.877 124.953 15.0957C125.163 15.3145 125.322 15.6038 125.432 15.9639C125.546 16.3239 125.603 16.7637 125.603 17.2832V22H123.62V17.2764C123.62 16.9482 123.575 16.693 123.483 16.5107C123.392 16.3285 123.258 16.2008 123.08 16.1279C122.907 16.0505 122.693 16.0117 122.438 16.0117C122.173 16.0117 121.943 16.0641 121.747 16.1689C121.556 16.2738 121.396 16.4196 121.269 16.6064C121.146 16.7887 121.052 17.0029 120.988 17.249C120.924 17.4951 120.893 17.7594 120.893 18.042Z" fill="black"/>
</svg>
